/* XPM */
static char *_704dd01e816450094839c53288462383Z3IWUQtzuLzMmax[] = {
/* columns rows colors chars-per-pixel */
"64 64 2 1 ",
"  c black",
". c #FFA3B1",
/* pixels */
"................................................................",
".                                                              .",
".                                                              .",
".                                                              .",
".                                                              .",
".                                                              .",
".                                                              .",
".                                                              .",
".                                                              .",
".                                                              .",
".                                                              .",
".                                                              .",
".                                                              .",
".                                                              .",
".                                                              .",
".                                                              .",
".                                                              .",
".                                                              .",
".                                                              .",
".                                                              .",
".                                                              .",
".                                                              .",
".                                                              .",
".                                                              .",
".                                                              .",
".                                                              .",
".                                                              .",
".                                                              .",
".                                                              .",
".                                                              .",
".                                                              .",
".                                                              .",
".                                                              .",
".                                                              .",
".                                                              .",
".                                                              .",
".                                                              .",
".                                                              .",
".                                                              .",
".                                                              .",
".                                                              .",
".                                                              .",
".                                                              .",
".                                                              .",
".                                                              .",
".                                                              .",
".                                                              .",
".                                                              .",
".                                                              .",
".                                                              .",
".                                                              .",
".                                                              .",
".                                                              .",
".                                                              .",
".                                                              .",
".                                                              .",
".                                                              .",
".                                                              .",
".                                                              .",
".                                                              .",
".                                                              .",
".                                                              .",
".                                                              .",
"................................................................"
};
