/* XPM */
static char *_a27d6e8e1254974963c976071392093UUWHQLNkitnwXTeh[] = {
/* columns rows colors chars-per-pixel */
"64 64 142 2 ",
"   c None",
".  c black",
"X  c #1D0F09",
"o  c #1F110A",
"O  c #101010",
"+  c #21120C",
"@  c #2E1A11",
"#  c #3F2418",
"$  c #3E2215",
"%  c #292A2A",
"&  c #27292A",
"*  c #45352E",
"=  c #713E27",
"-  c #713F28",
";  c #73422B",
":  c #7C452C",
">  c #6C4C3E",
",  c #7D4830",
"<  c #375C68",
"1  c #4B4F4F",
"2  c #574943",
"3  c #594942",
"4  c #594740",
"5  c #4D504F",
"6  c #694E41",
"7  c #6B5348",
"8  c #7B4F58",
"9  c #7E6C5F",
"0  c #5F466F",
"q  c #5E4570",
"w  c #6C4963",
"e  c #496065",
"r  c #666762",
"t  c #776B60",
"y  c #9A0533",
"u  c #9C0C35",
"i  c #804D36",
"p  c #86533C",
"a  c #8C553C",
"s  c #925234",
"d  c #9A5637",
"f  c #925438",
"g  c #9A5638",
"h  c #97583B",
"j  c #9C5A3C",
"k  c #A15736",
"l  c #A05A36",
"z  c #A05A3A",
"x  c #A7254D",
"c  c #A8264F",
"v  c #A92A51",
"b  c #AE355B",
"n  c #AF395D",
"m  c #B1395E",
"M  c #B13C60",
"N  c #89544B",
"B  c #815C49",
"V  c #975840",
"C  c #8C5E5C",
"Z  c #936047",
"A  c #96634B",
"S  c #906653",
"D  c #A36347",
"F  c #A36F58",
"G  c #AC7359",
"H  c #B1795F",
"J  c #B64769",
"K  c #8B7B73",
"L  c #A57560",
"P  c #A7816F",
"I  c #B4816A",
"U  c #B8846D",
"Y  c #B98A75",
"T  c #B78872",
"R  c #3F3886",
"E  c #292F95",
"W  c #2B3297",
"Q  c #2F3699",
"!  c #353893",
"~  c #323898",
"^  c #413B88",
"/  c #433C87",
"(  c #3C4BA5",
")  c #6D649A",
"_  c #546FB9",
"`  c #6166B1",
"'  c #6268B3",
"]  c #6F7CBE",
"[  c #5C7EC2",
"{  c #C36A86",
"}  c #C26784",
"|  c #2B8FAB",
" . c #268DAC",
".. c #3E93A9",
"X. c #5D80C2",
"o. c #6183C4",
"O. c #6F9BD2",
"+. c #729ED3",
"@. c #74A0D4",
"#. c #868787",
"$. c #868788",
"%. c #A48C81",
"&. c #AF9F98",
"*. c #B0A49E",
"=. c gray64",
"-. c #B2ABA9",
";. c #B5B1AF",
":. c #B4B4B4",
">. c #B4B7B8",
",. c #B7B8B8",
"<. c #B8B9BA",
"1. c #C5A08D",
"2. c #D18CA1",
"3. c #D291A5",
"4. c #D5B7A9",
"5. c #DEAEBC",
"6. c #88A3D4",
"7. c #95B9E0",
"8. c #E4BDC9",
"9. c #CAC7DC",
"0. c #E6C0CC",
"q. c #E9C1CB",
"w. c #E6D6CE",
"e. c #EBCDD6",
"r. c #EACBD5",
"t. c #EADAD3",
"y. c #ECD1DA",
"u. c #ECDFD9",
"i. c #E7D7D0",
"p. c #EEE4DD",
"a. c #CCCEE6",
"s. c #CED3EA",
"d. c #CED0E7",
"f. c #D2D8ED",
"g. c #DFEDF9",
"h. c #DBE6F5",
"j. c #F8ECEF",
"k. c #F8EEF1",
"l. c #F7F2F0",
"z. c #F9F4F4",
"x. c white",
"c. c white",
/* pixels */
"                    :.:.:.:.:.:.:.:.:.:.        :.:.                                    :.:.:.:.:.:.:.:.:.:.                    ",
"                    :.:.:.:.:.:.:.:.:.:.        :.:.                                    :.:.:.:.:.:.:.:.:.:.                    ",
"                    :.:.:.:.:.:.:.:.:.:.:.:.:.:.:.:.                            :.:.:.:.:.:.:.:.:.:.:.:.:.:.:.:.                ",
"                    :.:.:.:.:.:.:.:.:.:.:.:.:.:.:.:.                            :.:.:.:.:.:.:.:.:.:.:.:.:.:.:.:.                ",
"                :.:.:.:.:.:.:.:.:.:.:.:.:.:.:.:.:.:.                            :.:.:.:.:.:.:.:.:.:.:.:.:.:.:.:.                ",
"                :.:.:.:.:.:.:.:.:.:.:.:.:.:.:.:.:.:.                            :.:.:.:.:.:.:.:.:.:.:.:.:.:.:.:.                ",
"                :.:.:.:.:.:.:.:.:.:.:.:.:.:.:.:.:.:.                            :.:.:.:.:.:.:.:.:.:.:.:.:.:.:.:.                ",
"                :.:.:.:.:.:.:.:.:.:.:.:.:.:.:.:.:.;.                            ;.:.:.:.:.:.:.:.:.:.:.:.:.:.:.:.                ",
"                :.:.                :.:.:.:.:.:.>.*.L d j j j j j j j j j j d L *.>.>.:.:.:.:.:.:.:.:.:.:.:.                    ",
"                :.:.                :.:.:.,.,.;.*.%.S p p p p a h j j h a p p S %.&.&.*.;.:.:.:.:.:.:.:.:.:.                    ",
"                                :.:.:.:.        L S 7 2 4 4 4 > a j j a > 4 2 7 S F F P -.<.<.:.                                ",
"                                :.:.:.=.        s a 6 2 4 5 < e B z z B e < 1 6 a d d A K $.#.#.                                ",
"                                        O . . @ : j a p p r  .| t k k t |  .r a g j j i * & & &                                 ",
"                                        . . . @ , j j j z 9 ....9 k k 9 ....9 z j j j , @ . . .                                 ",
"                                                s j j j j Z 9 9 Z j j Z 9 9 Z j j j j s                                         ",
"                                                j j j j j j z z j j j j z z j j j j j j                                         ",
"                                                j j j j j j z z z j j z z z j j j j j j                                         ",
"                                                j j j j j f , ; ; ; ; ; ; , f j j j j j                                         ",
"                                                j j j j j , # o + + + + o # , j j j j j                                         ",
"                                                D d g j j : $ X o + + o o $ : j j g g g                                         ",
"                                        x.x.x.l.    s d d s : = = ; ; ; - : s d                                                 ",
"                                        l.x.x.x.    T I I I U U U H D D H U I Y                                                 ",
"                                    s Y u.x.x.x.x.l.u.w.w.i.i.i.t.4.G G 4.i.i.u.l.x.x.x.x.x.x.w.I d                             ",
"                                    d I w.x.x.x.x.x.x.x.x.x.x.x.x.u.1.1.u.x.x.x.x.x.x.x.x.x.x.w.I d                             ",
"                                j g d I w.x.x.x.x.x.x.x.x.x.x.x.x.z.p.p.z.x.x.x.x.x.x.x.x.x.x.w.I d g j j j                     ",
"                                j g d Y u.x.x.x.x.x.x.x.x.k.e.8.8.8.0.0.0.y.l.x.x.x.x.x.x.x.x.u.Y d g j j j                     ",
"                                j g     z.x.x.x.x.x.x.x.x.e.} b b n m n n { y.x.x.x.x.x.x.x.x.z.    g j j j                     ",
"                                j g     x.x.x.x.x.x.x.x.x.e.} b b n n x y n 0.x.x.x.x.x.x.x.x.x.    g j j j                     ",
"                                j g     x.x.x.x.x.x.x.x.x.k.e.8.8.0.0.2.x n 8.x.x.x.x.x.x.x.x.x.    g j j j                     ",
"                                j g     x.x.x.x.x.x.x.x.x.x.x.x.x.x.x.8.b b 8.x.x.x.x.x.x.x.x.x.    g j j j                     ",
"                                j g     x.x.x.x.x.x.x.x.x.x.x.x.x.x.x.8.b b 8.x.x.x.x.x.x.x.x.x.    g j j j                     ",
"                                j g     x.x.x.x.x.x.x.x.x.x.x.x.x.z.y.2.c n 8.x.x.x.x.x.x.x.x.x.    g j j j                     ",
"                                j g     x.x.x.x.x.x.x.x.x.x.x.x.x.e.} x y M 0.x.x.x.x.x.x.x.x.x.    g j j j                     ",
"                                j g     x.x.x.x.x.x.x.x.x.x.x.x.x.y.{ x y M 0.x.x.x.x.x.x.x.x.x.    g j j j                     ",
"                                j g     x.x.x.x.x.x.x.x.x.x.x.x.x.z.y.2.v n 8.x.x.x.x.x.x.x.x.x.    g j j j                     ",
"                                j g     x.x.x.x.x.x.x.x.x.j.r.8.8.0.r.3.v v 5.x.x.x.x.x.x.x.x.x.    g j j j                     ",
"                                j g     x.x.x.x.x.x.        J b b n M v u u     x.x.x.x.x.x.x.x.    g j j j                     ",
"                                j g     x.x.x.x.x.x.        J m m m m m M J     x.x.x.x.x.x.x.x.    g j j j                     ",
"                                j g     x.x.x.x.x.x.x.x.x.j.e.q.q.q.q.q.q.e.k.x.x.x.x.x.x.x.x.x.    g j j j                     ",
"                                j g     9.a.a.a.a.a.a.a.a.d.s.s.s.f.h.g.g.h.f.a.a.a.a.a.a.a.a.9.    g j j j                     ",
"                    j j j j j j j j l C ) ` ` ` ` ` ' ' ' ' ' ' ' ] 6.7.7.6.] ` ` ` ` ` ` ` ` ) C l j j j j j j                 ",
"                    j j j j j j j V N w R W W W W W W W W W W E E ( [ O.O.[ ( E E W W W W W W R w N V j j j j j                 ",
"                                j N 0 ^ ! W W W W W W W W W W W W ( X.+.+.X.( W W W W W W W W ! ^ q N j j j                     ",
"                                z 8 / Q Q Q Q Q Q Q Q Q Q Q Q Q W ( o.+.+.o.( W Q Q Q Q Q Q Q Q Q ^ 8 j j j                     ",
"                                    ! Q Q Q Q Q Q Q Q Q Q Q Q Q W ( o.@.@.o.( W Q Q Q Q Q Q Q Q Q !                             ",
"                                    Q Q Q Q Q Q Q Q Q Q Q Q Q Q Q ( _ o.o._ ( Q Q Q Q Q Q Q Q Q Q Q                             ",
"                                    Q Q Q Q Q Q Q Q Q Q Q Q Q Q Q ~ ( ( ( ( ~ Q Q Q Q Q Q Q Q Q Q Q                             ",
"                                    Q Q Q Q Q Q Q Q Q Q Q Q Q Q Q Q Q W W Q Q Q Q Q Q Q Q Q Q Q Q Q                             ",
"                                    Q Q Q Q Q Q Q Q Q Q Q Q Q Q Q Q Q Q Q Q Q Q Q Q Q Q Q Q Q Q Q Q                             ",
"                                    Q Q Q Q Q Q Q Q Q Q Q Q Q Q Q Q Q Q Q Q Q Q Q Q Q Q Q Q Q Q Q Q                             ",
"                                    Q Q Q Q Q Q Q Q Q Q Q Q Q Q Q Q Q Q Q Q Q Q Q Q Q Q Q Q Q Q Q Q                             ",
"                                    Q Q Q Q Q Q Q Q Q Q Q Q Q Q Q Q Q Q Q Q Q Q Q Q Q Q Q Q Q Q Q Q                             ",
"                                    Q Q Q Q Q Q Q Q Q Q Q Q Q Q Q Q Q Q Q Q Q Q Q Q Q Q Q Q Q Q Q Q                             ",
"                                    Q Q Q Q Q Q Q Q Q Q Q Q Q Q Q Q Q Q Q Q Q Q Q Q Q Q Q Q Q Q Q Q                             ",
"                                    Q Q Q Q Q Q Q Q Q Q Q Q Q Q Q Q Q Q Q Q Q Q Q Q Q Q Q Q Q Q Q Q                             ",
"                                    Q Q Q Q Q Q Q Q Q Q Q Q Q Q Q Q Q Q Q Q Q Q Q Q Q Q Q Q Q Q Q Q                             ",
"                                    Q Q Q Q Q Q Q Q Q Q Q Q Q Q Q Q         Q Q Q Q Q Q Q Q Q Q Q Q                             ",
"                                    Q Q Q Q Q Q Q Q Q Q Q Q Q Q Q Q         Q Q Q Q Q Q Q Q Q Q Q Q                             ",
"                                    Q Q Q Q Q Q Q Q Q Q Q Q Q Q Q Q         Q Q Q Q Q Q Q Q Q Q Q Q                             ",
"                                    Q Q Q Q Q Q Q Q Q Q Q Q Q Q Q Q         Q Q Q Q Q Q Q Q Q Q Q Q                             ",
"                                    Q Q Q Q Q Q Q Q Q Q Q Q Q Q Q Q         Q Q Q Q Q Q Q Q Q Q Q Q                             ",
"                                    Q Q Q Q Q Q Q Q Q Q Q Q Q Q Q Q         Q Q Q Q Q Q Q Q Q Q Q Q                             ",
"                                    Q Q Q Q Q Q Q Q Q Q Q Q Q Q Q Q         Q Q Q Q Q Q Q Q Q Q Q Q                             ",
"                                    Q Q Q Q Q Q Q Q Q Q Q Q Q Q Q Q         Q Q Q Q Q Q Q Q Q Q Q Q                             "
};
